P2
25 12
255
 150 142 135 137 137 137 133 132 132 130 130 127 128 126 124 123 121 124 125 124 123 125 124 123 123
 142 136 134 134 136 136 132 129 128 128 124 125 125 127 127 127 125 125 126 127 128 129 129 127 129
 137 134 132 133 133 129 125 124 123 121 120 122 121 118 114 115 114 113 114 116 122 126 125 127 128
 136 132 133 131 128 122 119 116 114 110 103  94  96  94  90  94 101 100 104 103 106 118 123 122 127
 138 135 134 129 122 113 109 108 110  94  71  68  79  68  61  79  93  92  91  95  96 107 121 121 124
 141 138 134 127 115 106 103 112 127  96  68  58  82  66  50  81 111  91  86  83  94 105 121 123 125
 144 141 137 130 122 107 110 131 156 119  77  71  65  67  62  98 138 109  98  88  93 112 121 126 130
 148 148 144 146 138 125 127 140 166 151 103  84  74  77  87 116 137 120 107  96  99 114 128 131 134
 157 159 160 160 151 148 141 140 150 152 132 113 111 110 115 128 135 129 115 111 111 124 134 139 139
 164 163 163 164 160 159 155 150 151 150 146 139 137 132 127 129 127 124 121 121 127 136 140 145 147
 170 166 162 162 161 154 152 152 149 148 145 140 139 136 133 131 133 132 133 137 141 145 151 151 152
 170 171 167 164 163 162 157 155 153 151 148 146 146 146 146 145 147 147 148 149 151 155 156 158 156
